#!OML:ASF X:\für Bonn\!DataBase\2005_08_11_Bastian_Final\c3d\Bastian.ASF
:FULLY-SPECIFIED
:DEGREES
53
root 1.25513 21.2566 26.8249 717.396 -5.31727 -6.95664
lowerback 11.6353 -0.091862 -0.474275
upperback 7.3243 -0.186419 -0.402712
thorax 1.12381 -0.110516 -0.131644
lowerneck -9.54927 -4.59322 -9.05614
upperneck 0.944298 -5.64945 12.6751
head 2.4827 -2.49886 5.03659
rclavicle -7.95139e-015 -1.11319e-014
rhumerus -52.7089 5.38157 -89.3474
rradius 54.1572
rwrist 2.26125
rhand -21.1779 14.3089
rfingers 7.12502
rthumb 5.20259 -15.6073
lclavicle -7.95139e-015 -1.11319e-014
lhumerus -43.2827 4.53742 78.2257
lradius 77.0699
lwrist -166.389
lhand -22.3496 6.86878
lfingers 7.12502
lthumb 4.07114 36.8096
rfemur -20.325 -1.2262 31.104
rtibia 36.8414
rfoot 9.54341 -14.4068
rtoes 40.0936
lfemur -20.4399 4.93388 -12.5806
ltibia 39.0739
lfoot 12.4614 -3.40696
ltoes -23.7711
54
root 1.25073 21.0683 27.0284 717.408 -5.22365 -6.7679
lowerback 11.6517 -0.187709 -0.676816
upperback 7.22484 -0.331867 -0.332514
thorax 1.01243 -0.190787 0.0704135
lowerneck -9.73211 -4.52904 -9.05757
upperneck 1.0591 -5.55708 12.6341
head 2.5347 -2.44616 5.02685
rclavicle 1.43125e-014 9.54166e-015
rhumerus -52.9686 4.82419 -89.0965
rradius 52.3152
rwrist 2.16839
rhand -21.2664 14.1828
rfingers 7.12502
rthumb 5.11714 -15.7354
lclavicle 1.43125e-014 9.54166e-015
lhumerus -43.3236 4.87246 77.9312
lradius 74.096
lwrist -166.523
lhand -22.1461 6.84004
lfingers 7.12502
lthumb 4.26771 36.777
rfemur -20.577 -0.795416 30.7377
rtibia 36.7974
rfoot 9.30282 -15.5797
rtoes 41.3164
lfemur -20.5891 4.59092 -12.8373
ltibia 38.6293
lfoot 12.5749 -3.34716
ltoes -22.2384
55
root 1.24753 20.8651 27.2319 717.419 -5.12231 -6.63669
lowerback 11.7133 -0.289215 -0.858988
upperback 7.11938 -0.483386 -0.221018
thorax 0.872286 -0.273728 0.305112
lowerneck -9.97122 -4.47128 -9.00046
upperneck 1.16896 -5.47116 12.5031
head 2.59022 -2.39737 4.97827
rclavicle -7.95139e-016 4.77083e-015
rhumerus -53.1982 4.30223 -88.7938
rradius 50.3741
rwrist 2.16747
rhand -21.385 14.188
rfingers 7.12502
rthumb 5.00262 -15.7329
lclavicle -7.95139e-016 4.77083e-015
lhumerus -43.3157 5.28339 77.6524
lradius 71.0241
lwrist -166.58
lhand -22.0073 6.88114
lfingers 7.12502
lthumb 4.40174 36.8154
rfemur -20.8566 -0.45511 30.4323
rtibia 36.8634
rfoot 9.48194 -16.4546
rtoes 42.0274
lfemur -20.7428 4.14942 -13.0153
ltibia 38.2006
lfoot 12.7875 -3.1842
ltoes -20.2543
56
root 1.24407 20.6507 27.4361 717.471 -5.05507 -6.49652
lowerback 11.7586 -0.361289 -1.04727
upperback 6.99418 -0.596905 -0.138351
thorax 0.721065 -0.336542 0.509808
lowerneck -10.0074 -4.41281 -8.90405
upperneck 0.940381 -5.38001 12.46
head 2.51452 -2.35521 4.95568
rclavicle 1.63003e-014 3.02153e-014
rhumerus -53.4473 3.84307 -88.5705
rradius 48.4486
rwrist 1.98788
rhand -21.5148 14.2716
rfingers 7.12502
rthumb 4.87727 -15.6523
lclavicle 1.63003e-014 3.02153e-014
lhumerus -43.2195 5.66697 77.3222
lradius 67.7891
lwrist -166.491
lhand -21.9275 7.07981
lfingers 7.12502
lthumb 4.47873 37.0125
rfemur -21.2072 -0.277311 30.131
rtibia 37.0153
rfoot 10.1445 -17.0062
rtoes 41.8591
lfemur -20.9723 3.74316 -13.2048
ltibia 37.8321
lfoot 13.0991 -3.14937
ltoes -18.5937
57
root 1.24157 20.4207 27.6405 717.5 -5.00038 -6.44018
lowerback 11.8341 -0.432168 -1.11362
upperback 6.894 -0.697613 -0.0571921
thorax 0.579076 -0.3891 0.643563
lowerneck -9.99796 -4.35283 -8.72671
upperneck 0.538045 -5.28472 12.3987
head 2.37707 -2.31555 4.91583
rclavicle -1.11319e-014 -1.11319e-014
rhumerus -53.4286 3.24064 -88.3043
rradius 46.3178
rwrist 1.89169
rhand -21.6325 14.3584
rfingers 7.12502
rthumb 4.76367 -15.568
lclavicle -1.11319e-014 -1.11319e-014
lhumerus -42.9523 6.07735 76.9804
lradius 64.5018
lwrist -166.35
lhand -21.8452 7.15307
lfingers 7.12502
lthumb 4.55828 37.084
rfemur -21.5201 -0.238918 29.9363
rtibia 37.1911
rfoot 11.1516 -17.3116
rtoes 41.3233
lfemur -21.2414 3.28849 -13.2854
ltibia 37.6221
lfoot 13.4321 -3.16613
ltoes -17.565
58
root 1.24036 20.1746 27.8438 717.51 -4.93005 -6.41815
lowerback 11.9347 -0.501184 -1.10992
upperback 6.82284 -0.789213 0.0109306
thorax 0.453123 -0.434942 0.72391
lowerneck -10.1667 -4.31828 -8.48427
upperneck 0.259002 -5.22984 12.3231
head 2.30723 -2.28868 4.85501
rclavicle 1.27222e-014 -2.06736e-014
rhumerus -53.1741 2.50903 -87.9703
rradius 44.0555
rwrist 1.82418
rhand -21.6654 14.4693
rfingers 7.12502
rthumb 4.73185 -15.4579
lclavicle 1.27222e-014 -2.06736e-014
lhumerus -42.5434 6.505 76.6332
lradius 61.2466
lwrist -166.065
lhand -21.7192 6.93565
lfingers 7.12502
lthumb 4.6799 36.864
rfemur -21.791 -0.300656 29.7821
rtibia 37.3679
rfoot 12.3437 -17.3875
rtoes 40.5774
lfemur -21.58 2.7552 -13.3232
ltibia 37.6082
lfoot 13.6861 -3.15645
ltoes -17.6183
59
root 1.24019 19.9131 28.0459 717.407 -4.94018 -6.62006
lowerback 12.1541 -0.552851 -0.861186
upperback 6.80372 -0.833856 0.139205
thorax 0.313947 -0.452151 0.724995
lowerneck -10.4587 -4.29994 -8.25333
upperneck 0.0619048 -5.19482 12.2345
head 2.28342 -2.26708 4.78877
rclavicle -2.38542e-015 -6.36111e-015
rhumerus -52.8904 1.82525 -87.6299
rradius 41.8052
rwrist 1.70182
rhand -21.6188 14.5726
rfingers 7.12502
rthumb 4.77682 -15.3536
lclavicle -2.38542e-015 -6.36111e-015
lhumerus -41.9757 6.98183 76.3638
lradius 58.1041
lwrist -165.674
lhand -21.4792 6.36256
lfingers 7.12502
lthumb 4.91169 36.2856
rfemur -21.8943 -0.421715 29.8942
rtibia 37.5425
rfoot 13.7105 -17.1061
rtoes 39.5161
lfemur -21.8712 2.30101 -13.0939
ltibia 37.8346
lfoot 13.7311 -3.29544
ltoes -19.435
60
root 1.23987 19.637 28.2452 717.097 -4.98087 -7.08512
lowerback 12.5841 -0.60972 -0.316209
upperback 6.87526 -0.853248 0.310949
thorax 0.152622 -0.450526 0.603941
lowerneck -10.8726 -4.28063 -7.97799
upperneck -0.0984421 -5.16177 12.1524
head 2.28934 -2.24196 4.71541
rclavicle -1.59028e-015 -7.95139e-016
rhumerus -52.8524 1.23248 -87.3188
rradius 39.8794
rwrist 1.511
rhand -21.5021 14.6947
rfingers 7.12502
rthumb 4.88953 -15.2288
lclavicle -1.59028e-015 -7.95139e-016
lhumerus -41.1651 7.49256 76.0798
lradius 55.0307
lwrist -164.93
lhand -21.2252 5.56146
lfingers 7.12502
lthumb 5.15693 35.4787
rfemur -21.7648 -0.516581 30.2993
rtibia 37.8618
rfoot 14.8899 -16.4143
rtoes 38.5798
lfemur -21.9854 1.91999 -12.5561
ltibia 38.2399
lfoot 13.5787 -3.50797
ltoes -21.8722
61
root 1.24121 19.3515 28.4409 716.665 -5.05371 -7.66018
lowerback 13.1379 -0.676723 0.372833
upperback 7.00225 -0.863899 0.510671
thorax -0.0172891 -0.442074 0.431317
lowerneck -11.3887 -4.26906 -7.68094
upperneck -0.204953 -5.13991 11.9996
head 2.32528 -2.2206 4.61443
rclavicle -1.39149e-015 -1.03368e-014
rhumerus -53.0208 0.73777 -86.9926
rradius 38.2351
rwrist 1.18756
rhand -21.37 14.856
rfingers 7.12502
rthumb 5.01706 -15.0646
lclavicle -1.39149e-015 -1.03368e-014
lhumerus -40.2723 8.10306 75.7809
lradius 52.1042
lwrist -163.966
lhand -21.0874 4.55844
lfingers 7.12502
lthumb 5.29 34.4724
rfemur -21.5411 -0.727316 30.8418
rtibia 38.4829
rfoot 15.7773 -15.1334
rtoes 37.9283
lfemur -22.0118 1.6119 -11.8986
ltibia 38.7655
lfoot 13.2367 -3.80886
ltoes -23.5659
62
root 1.24264 19.0483 28.6333 716.466 -5.07502 -7.92619
lowerback 13.3552 -0.737515 0.807134
upperback 7.07885 -0.892802 0.596516
thorax -0.057319 -0.447125 0.282235
lowerneck -12.0005 -4.27328 -7.40993
upperneck -0.186638 -5.14848 11.943
head 2.42044 -2.20648 4.54383
rclavicle 3.97569e-015 -3.4191e-014
rhumerus -53.2346 0.287745 -86.7503
rradius 36.713
rwrist 0.905076
rhand -21.3008 14.8953
rfingers 7.12502
rthumb 5.0839 -15.0238
lclavicle 3.97569e-015 -3.4191e-014
lhumerus -39.3586 8.77978 75.45
lradius 49.2985
lwrist -163.083
lhand -20.8493 3.60897
lfingers 7.12502
lthumb 5.51983 33.5171
rfemur -21.6821 -0.970813 31.036
rtibia 39.559
rfoot 15.9388 -13.4842
rtoes 38.7719
lfemur -22.3516 1.31665 -11.6027
ltibia 39.3907
lfoot 12.6666 -4.11589
ltoes -22.8865
63
root 1.24438 18.7249 28.8219 716.211 -5.10627 -7.95674
lowerback 13.5834 -0.777269 0.993874
upperback 7.16727 -0.921351 0.639241
thorax -0.0878276 -0.457614 0.227829
lowerneck -12.8161 -4.29415 -7.15173
upperneck 0.122767 -5.19168 11.8266
head 2.63558 -2.19935 4.45057
rclavicle -7.95139e-015 0
rhumerus -53.4428 -0.153245 -86.4346
rradius 35.2056
rwrist 0.745617
rhand -21.1871 15.0113
rfingers 7.12502
rthumb 5.19373 -14.9051
lclavicle -7.95139e-015 0
lhumerus -38.5889 9.514 75.1678
lradius 46.7842
lwrist -162.422
lhand -20.452 2.86431
lfingers 7.12502
lthumb 5.9034 32.7621
rfemur -21.8868 -1.27025 30.9823
rtibia 41.1352
rfoot 15.4406 -11.2541
rtoes 39.9735
lfemur -22.6102 1.13837 -11.5917
ltibia 40.1341
lfoot 11.7826 -4.3635
ltoes -21.8851
64
root 1.2473 18.3879 29.0063 715.841 -5.20179 -8.01036
lowerback 13.9672 -0.791011 1.21823
upperback 7.29314 -0.908548 0.668257
thorax -0.161839 -0.446418 0.13441
lowerneck -13.7248 -4.31157 -6.81804
upperneck 0.416692 -5.24086 11.7074
head 2.85906 -2.19229 4.34311
rclavicle 9.93923e-015 -7.95139e-015
rhumerus -53.5965 -0.554283 -86.1871
rradius 33.7646
rwrist 0.62574
rhand -21.1683 14.9471
rfingers 7.12502
rthumb 5.21187 -14.9688
lclavicle 9.93923e-015 -7.95139e-015
lhumerus -37.8582 10.1369 74.9863
lradius 44.5656
lwrist -161.996
lhand -19.7592 2.22063
lfingers 7.12502
lthumb 6.57232 32.0986
rfemur -22.0808 -1.60109 30.9779
rtibia 43.1508
rfoot 14.3603 -8.34568
rtoes 40.4619
lfemur -22.5838 1.04665 -11.5636
ltibia 41.0909
lfoot 10.2172 -4.686
ltoes -20.6108
